<svg viewBox="0 0 200 200" xmlns="http://www.w3.org/2000/svg">
  <path fill="#4B406B" d="M30.5,-63C33.9,-50.9,27,-31.3,26.6,-19.5C26.2,-7.7,32.4,-3.9,40.3,4.6C48.3,13,58,26.1,56.4,34.5C54.9,42.9,42,46.8,30.8,52.5C19.5,58.2,9.7,65.8,-1.7,68.8C-13.2,71.8,-26.4,70.3,-30.3,60.3C-34.2,50.2,-28.6,31.8,-35.2,20.4C-41.7,8.9,-60.3,4.5,-70.4,-5.8C-80.4,-16.1,-82,-32.1,-76.5,-45.4C-71,-58.7,-58.5,-69.2,-44.6,-75.1C-30.7,-81.1,-15.3,-82.5,-0.9,-81C13.6,-79.5,27.2,-75,30.5,-63Z" transform="translate(100, 10 )" />
</svg>